<svg width="87" height="27" viewBox="0 0 87 27" fill="none" xmlns="http://www.w3.org/2000/svg">
<path d="M21.0546 0.0391923H18.5815C17.3535 0.0391923 16.1757 0.527032 15.3074 1.39539C14.439 2.26375 13.9512 3.4415 13.9512 4.66955C13.9512 4.06048 13.831 3.45739 13.5976 2.89483C13.3641 2.33227 13.022 1.82129 12.5908 1.39117C12.1595 0.961044 11.6477 0.620223 11.0845 0.388228C10.5214 0.156232 9.91798 0.0376246 9.30891 0.0391923H6.84773C5.99819 0.0360546 5.15639 0.200673 4.37061 0.523606C3.58483 0.84654 2.87055 1.32143 2.26872 1.92104C1.66689 2.52066 1.18937 3.23319 0.863539 4.01777C0.53771 4.80235 0.369989 5.64354 0.369995 6.49309V21.9157C0.369995 23.1801 0.872276 24.3927 1.76634 25.2868C2.66041 26.1808 3.87302 26.6831 5.13742 26.6831H23.0152C23.6089 26.6839 24.197 26.5676 24.7457 26.341C25.2944 26.1143 25.7931 25.7817 26.2132 25.3622C26.6333 24.9427 26.9665 24.4444 27.1939 23.896C27.4213 23.3476 27.5383 22.7597 27.5383 22.166V6.49309C27.5383 5.64304 27.3704 4.80136 27.0442 4.01639C26.718 3.23142 26.24 2.51862 25.6375 1.91893C25.0351 1.31923 24.3201 0.844469 23.5336 0.521888C22.7471 0.199307 21.9047 0.0352678 21.0546 0.0391923Z" fill="#846EEB"/>
<path d="M52.4183 0.0392037H49.9452C48.7171 0.0392037 47.5394 0.527043 46.671 1.3954C45.8026 2.26376 45.3148 3.44151 45.3148 4.66956C45.3148 4.06099 45.1948 3.45839 44.9618 2.89622C44.7287 2.33405 44.3871 1.82334 43.9565 1.39329C43.5259 0.963248 43.0147 0.622304 42.4523 0.389958C41.8898 0.157611 41.2871 0.0384204 40.6785 0.0392037H38.2113C36.4997 0.0392037 34.8581 0.719167 33.6478 1.92951C32.4374 3.13985 31.7574 4.78142 31.7574 6.4931V21.9157C31.7574 23.1801 32.2597 24.3927 33.1538 25.2868C34.0479 26.1808 35.2605 26.6831 36.5249 26.6831H54.3312C54.9249 26.6839 55.5129 26.5677 56.0616 26.341C56.6104 26.1143 57.109 25.7817 57.5291 25.3622C57.9492 24.9427 58.2825 24.4444 58.5099 23.896C58.7372 23.3476 58.8543 22.7597 58.8543 22.166V6.4931C58.8543 4.78451 58.1768 3.14564 56.9703 1.93581C55.7638 0.725986 54.1268 0.0439366 52.4183 0.0392037Z" fill="#846EEB"/>
<path d="M75.4569 22.4461C75.4569 23.5745 75.9052 24.6568 76.7031 25.4548C77.5011 26.2527 78.5833 26.701 79.7118 26.701H82.8285C83.9349 26.701 84.9959 26.2615 85.7782 25.4792C86.5605 24.6969 87 23.6359 87 22.5295V4.31199C87 3.17877 86.5498 2.09197 85.7485 1.29067C84.9472 0.48936 83.8604 0.0391915 82.7272 0.0391915H79.7476C79.185 0.0368374 78.6274 0.145618 78.1069 0.359293C77.5865 0.572967 77.1133 0.887327 76.7147 1.28433C76.316 1.68133 75.9997 2.15315 75.7838 2.67272C75.568 3.19229 75.4569 3.74937 75.4569 4.31199V14.0375C75.4569 13.6517 75.3809 13.2697 75.2333 12.9132C75.0856 12.5568 74.8692 12.2329 74.5964 11.9601C74.3236 11.6873 73.9997 11.4709 73.6433 11.3232C73.2868 11.1756 72.9048 11.0996 72.519 11.0996H68.1925C66.5235 11.0996 64.9229 11.7626 63.7427 12.9428C62.5625 14.1229 61.8995 15.7236 61.8995 17.3926V20.3722C61.8995 22.0412 62.5625 23.6419 63.7427 24.8221C64.9229 26.0022 66.5235 26.6652 68.1925 26.6652H70.8385C71.4447 26.666 72.0451 26.5473 72.6054 26.3158C73.1657 26.0844 73.6749 25.7448 74.1038 25.3164C74.5328 24.888 74.873 24.3793 75.1052 23.8193C75.3374 23.2593 75.4569 22.659 75.4569 22.0528" fill="#846EEB"/>
</svg>
