<svg width="28" height="28" viewBox="0 0 28 28" fill="none" xmlns="http://www.w3.org/2000/svg">
<path d="M19.6418 6.87919L11.4935 10.6033C11.0995 10.7834 10.7834 11.0995 10.6033 11.4935L6.87919 19.6418C6.4496 20.5817 7.41774 21.5504 8.35822 21.1208L16.5065 17.3967C16.9005 17.2166 17.2166 16.9005 17.3967 16.5065L21.1208 8.35822C21.5504 7.41774 20.5823 6.4496 19.6418 6.87919ZM15.2747 15.2747C14.5707 15.9786 13.4293 15.9786 12.7253 15.2747C12.0214 14.5707 12.0214 13.4293 12.7253 12.7253C13.4293 12.0214 14.5707 12.0214 15.2747 12.7253C15.9786 13.4293 15.9786 14.5707 15.2747 15.2747ZM14 0C6.26782 0 0 6.26782 0 14C0 21.7322 6.26782 28 14 28C21.7322 28 28 21.7322 28 14C28 6.26782 21.7322 0 14 0ZM14 25.2903C7.77452 25.2903 2.70968 20.2255 2.70968 14C2.70968 7.77452 7.77452 2.70968 14 2.70968C20.2255 2.70968 25.2903 7.77452 25.2903 14C25.2903 20.2255 20.2255 25.2903 14 25.2903Z" fill="black"/>
</svg>
