<svg width="20" height="20" viewBox="0 0 20 20" fill="none" xmlns="http://www.w3.org/2000/svg">
<path d="M11.1111 9.55556L13.8889 12.3333C14.0926 12.537 14.1944 12.7963 14.1944 13.1111C14.1944 13.4259 14.0926 13.6852 13.8889 13.8889C13.6852 14.0926 13.4259 14.1944 13.1111 14.1944C12.7963 14.1944 12.537 14.0926 12.3333 13.8889L9.22222 10.7778C9.11111 10.6667 9.02778 10.5415 8.97222 10.4022C8.91667 10.2637 8.88889 10.1204 8.88889 9.97222V5.55556C8.88889 5.24074 8.99556 4.97667 9.20889 4.76333C9.42148 4.55074 9.68519 4.44444 10 4.44444C10.3148 4.44444 10.5789 4.55074 10.7922 4.76333C11.0048 4.97667 11.1111 5.24074 11.1111 5.55556V9.55556ZM10 20C7.75926 20 5.75 19.3378 3.97222 18.0133C2.19444 16.6896 1 14.963 0.388889 12.8333C0.296296 12.5 0.328889 12.1852 0.486667 11.8889C0.643704 11.5926 0.888889 11.4074 1.22222 11.3333C1.53704 11.2593 1.81963 11.3285 2.07 11.5411C2.31963 11.7544 2.49074 12.0185 2.58333 12.3333C3.06481 13.963 3.99556 15.2778 5.37556 16.2778C6.75482 17.2778 8.2963 17.7778 10 17.7778C12.1667 17.7778 14.0044 17.023 15.5133 15.5133C17.023 14.0044 17.7778 12.1667 17.7778 10C17.7778 7.83333 17.023 5.99519 15.5133 4.48556C14.0044 2.97667 12.1667 2.22222 10 2.22222C8.72222 2.22222 7.52778 2.51852 6.41667 3.11111C5.30556 3.7037 4.37037 4.51852 3.61111 5.55556H5.55556C5.87037 5.55556 6.13445 5.66185 6.34778 5.87444C6.56037 6.08778 6.66667 6.35185 6.66667 6.66667C6.66667 6.98148 6.56037 7.24519 6.34778 7.45778C6.13445 7.67111 5.87037 7.77778 5.55556 7.77778H1.11111C0.796296 7.77778 0.532593 7.67111 0.32 7.45778C0.106667 7.24519 0 6.98148 0 6.66667V2.22222C0 1.90741 0.106667 1.64333 0.32 1.43C0.532593 1.21741 0.796296 1.11111 1.11111 1.11111C1.42593 1.11111 1.69 1.21741 1.90333 1.43C2.11593 1.64333 2.22222 1.90741 2.22222 2.22222V3.72222C3.16667 2.53704 4.31963 1.62037 5.68111 0.972222C7.04185 0.324074 8.48148 0 10 0C11.3889 0 12.69 0.263704 13.9033 0.791111C15.1159 1.31926 16.1715 2.03222 17.07 2.93C17.9678 3.82852 18.6807 4.88407 19.2089 6.09667C19.7363 7.31 20 8.61111 20 10C20 11.3889 19.7363 12.6896 19.2089 13.9022C18.6807 15.1156 17.9678 16.1711 17.07 17.0689C16.1715 17.9674 15.1159 18.6807 13.9033 19.2089C12.69 19.7363 11.3889 20 10 20Z" fill="#050505"/>
</svg>
