<svg width="235" height="236" viewBox="0 0 235 236" fill="none" xmlns="http://www.w3.org/2000/svg">
<ellipse cx="117.5" cy="118" rx="117.5" ry="118" fill="#FAFAFA"/>
<path d="M140.817 89.2047L107.603 104.193C105.997 104.917 104.709 106.189 103.974 107.775L88.7945 140.568C87.0434 144.351 90.9897 148.25 94.8232 146.521L128.037 131.533C129.643 130.808 130.931 129.536 131.665 127.95L146.845 95.1571C148.596 91.3721 144.65 87.4757 140.817 89.2047ZM123.016 122.993C120.146 125.826 115.494 125.826 112.624 122.993C109.755 120.16 109.755 115.566 112.624 112.733C115.494 109.9 120.146 109.9 123.016 112.733C125.885 115.566 125.885 120.16 123.016 122.993ZM117.82 61.519C86.3024 61.519 60.7539 86.7442 60.7539 117.863C60.7539 148.981 86.3024 174.206 117.82 174.206C149.337 174.206 174.886 148.981 174.886 117.863C174.886 86.7442 149.337 61.519 117.82 61.519ZM117.82 163.301C92.4439 163.301 71.7989 142.917 71.7989 117.863C71.7989 92.8079 92.4439 72.4243 117.82 72.4243C143.196 72.4243 163.841 92.8079 163.841 117.863C163.841 142.917 143.196 163.301 117.82 163.301Z" fill="#EFEEEE"/>
</svg>
